####
#
# OBJ File Generated by Meshlab
#
####
# Object base.obj
#
# Vertices: 212
# Faces: 420
#
####
vn -2.235862 -2.197225 -3.013255
v -0.053699 -0.053139 -0.000000
vn 0.333393 -3.117105 -3.012373
v 0.008288 -0.075083 -0.000000
vn -0.122249 -3.130694 -2.999126
v -0.002888 -0.075508 -0.000000
vn -1.147721 2.920159 -3.043031
v -0.027583 0.070280 -0.000000
vn 0.466409 3.102755 -3.043009
v 0.011253 0.074656 -0.000000
vn -2.453917 1.955215 -3.042916
v -0.059028 0.047073 -0.000000
vn -3.078130 0.582102 -2.991868
v -0.074253 0.014017 -0.000000
vn -1.653600 -2.664052 -3.020695
v -0.040202 -0.063944 -0.000000
vn 1.845164 2.533299 -3.006499
v 0.044453 0.061085 -0.000000
vn 2.453929 1.955175 -3.043455
v 0.059027 0.047073 -0.000000
vn 3.111874 -0.378896 -3.011700
v 0.075019 -0.008924 -0.000000
vn 2.590550 -1.770375 -3.044417
v 0.062380 -0.042530 0.000000
vn 2.921285 -1.144839 -3.042900
v 0.070280 -0.027583 0.000000
vn 1.465674 -2.768478 -2.990638
v 0.035324 -0.066803 -0.000000
vn 2.141761 -2.293428 -3.046969
v 0.051352 -0.055345 0.000000
vn -2.827276 1.360553 -3.042880
v -0.068022 0.032758 -0.000000
vn -1.960158 -2.450147 -3.044555
v -0.047073 -0.059028 0.000000
vn -3.128731 -0.235739 -3.042738
v -0.075288 -0.005642 0.000000
vn -3.132364 0.135017 -3.015845
v -0.075479 0.002846 0.000000
vn 2.870997 1.254586 -2.998298
v 0.069253 0.030239 -0.000000
vn 2.661799 1.657050 -3.019952
v 0.063950 0.040191 -0.000000
vn 3.031386 -0.801779 -3.020804
v 0.072955 -0.019561 0.000000
vn 6.119863 -1.091825 0.484454
v 0.074295 -0.013467 0.017790
vn 1.149662 2.919495 -3.044590
v 0.027583 0.070280 -0.000000
vn 2.376965 -2.045980 -3.026262
v 0.057255 -0.049262 0.000000
vn 2.773819 -1.464182 -3.025801
v 0.066772 -0.035307 0.000000
vn 5.703609 -2.471688 0.498072
v 0.069389 -0.029714 0.018053
vn -0.351252 3.112863 -2.991009
v -0.008517 0.075085 -0.000000
vn -1.860529 2.521002 -2.998855
v -0.044872 0.060803 0.000000
vn -2.964707 1.019779 -3.016930
v -0.071287 0.024967 0.000000
vn 5.349551 -3.071104 1.099738
v 0.064906 -0.037474 0.021342
vn 2.734612 -1.435301 3.698974
v 0.051350 -0.026950 0.099099
vn 2.541977 -1.753756 3.699788
v 0.047727 -0.032943 0.099099
vn 4.917431 -3.702473 1.125891
v 0.059953 -0.044878 0.021869
vn -3.647286 -5.037682 0.483569
v -0.044332 -0.061119 0.017855
vn -3.065637 -0.371422 3.700885
v -0.057569 -0.006990 0.099099
vn -6.140853 -0.536732 1.141053
v -0.074600 -0.006216 0.021872
vn -6.050799 -1.158036 1.118622
v -0.073566 -0.013799 0.022122
vn -5.983222 -1.678337 0.497610
v -0.072754 -0.020192 0.017803
vn -5.889530 -1.815892 1.152822
v -0.071463 -0.022068 0.022081
vn -6.090011 0.934559 1.157989
v -0.073975 0.011285 0.021928
vn -6.149076 0.460493 1.144525
v -0.074609 0.005490 0.022004
vn -3.065824 0.372552 3.699076
v -0.057569 0.006990 0.099099
vn -5.525418 -2.730440 1.158676
v -0.067417 -0.032282 0.022252
vn -5.236462 -3.238617 1.124735
v -0.063516 -0.039735 0.021741
vn -2.734930 -1.434356 3.699884
v -0.051350 -0.026950 0.099099
vn -2.763441 -1.478232 -3.005917
v -0.066574 -0.035715 0.000000
vn -2.956360 -1.037297 -2.997837
v -0.071323 -0.024972 0.000000
vn -3.078568 -0.594473 -3.019513
v -0.074219 -0.014023 0.000000
vn 0.760852 -6.167163 0.495102
v 0.008885 -0.074979 0.017902
vn 1.164199 -6.048937 1.108052
v 0.013602 -0.073597 0.022062
vn 0.468693 -6.146311 1.145921
v 0.005696 -0.074619 0.021907
vn 2.193574 2.239567 -3.012697
v 0.053089 0.053750 0.000000
vn -2.998718 0.738797 3.699037
v -0.056307 0.013878 0.099099
vn 3.027369 0.813462 -3.013841
v 0.072961 0.019537 0.000000
vn 5.851005 2.095282 0.480535
v 0.071052 0.025543 0.017862
vn 3.137396 0.001669 -3.040308
v 0.075499 -0.000000 0.000000
vn 0.100589 3.133539 -3.015671
v 0.002852 0.075479 0.000000
vn -0.794449 3.032981 -3.016520
v -0.019528 0.072964 0.000000
vn -1.603824 5.944208 1.127046
v -0.019097 0.072404 0.021906
vn -2.444869 5.643489 1.158068
v -0.029700 0.068695 0.022075
vn -1.094376 2.887866 3.699720
v -0.020564 0.054224 0.099099
vn -1.435023 2.734376 3.700929
v -0.026950 0.051350 0.099099
vn -1.475534 2.766555 -3.019361
v -0.035277 0.066788 0.000000
vn 1.857091 -2.525666 -3.011726
v 0.045235 -0.060510 0.000000
vn 3.502202 -5.156373 0.437675
v 0.042613 -0.062276 0.017783
vn 3.125857 -5.314690 1.131696
v 0.037474 -0.064906 0.021342
vn 1.435307 -2.734611 3.698961
v 0.026950 -0.051350 0.099099
vn 2.612681 -5.580910 1.160676
v 0.032173 -0.067481 0.022242
vn 4.062223 -4.695790 0.554062
v 0.049539 -0.056953 0.018011
vn -5.795924 2.290643 0.466879
v -0.070280 0.027486 0.017748
vn 2.311522 -2.047742 3.700672
v 0.043408 -0.038456 0.099099
vn 5.540021 -2.713929 1.124308
v 0.067383 -0.032465 0.022101
vn 5.293717 -3.252347 0.502039
v 0.064269 -0.039620 0.017912
vn -0.565432 -3.084071 -3.018387
v -0.014034 -0.074216 -0.000000
vn -0.916950 -6.160725 0.477152
v -0.011158 -0.074634 0.017748
vn -0.930960 -2.996145 -3.036472
v -0.022254 -0.072145 0.000000
vn -1.281313 -2.860586 -3.006889
v -0.030649 -0.069051 -0.000000
vn 0.050848 -6.226729 0.479059
v 0.000304 -0.075486 0.017706
vn -4.193312 -4.602672 0.482634
v -0.051262 -0.055380 0.017748
vn -4.352511 -4.362711 1.082765
v -0.053299 -0.052811 0.021142
vn -4.715973 -4.052007 0.499697
v -0.056977 -0.049506 0.018045
vn -3.718533 -4.903192 1.136787
v -0.044936 -0.059961 0.021689
vn -0.739702 -2.998197 3.700663
v -0.013878 -0.056307 0.099099
vn -1.870064 -5.871712 1.138987
v -0.022171 -0.071430 0.022089
vn -1.149043 -6.048992 1.139921
v -0.014111 -0.073496 0.022135
vn -0.485423 -6.143546 1.153457
v -0.005510 -0.074598 0.022049
vn -2.998140 -0.739815 3.700817
v -0.056307 -0.013878 0.099099
vn -3.088290 0.000074 3.699575
v -0.057992 -0.000000 0.099099
vn -6.167829 0.026198 1.130328
v -0.074830 0.000073 0.021934
vn -6.211973 0.456499 0.456813
v -0.075259 0.005549 0.017748
vn -5.755365 -2.227662 1.097518
v -0.069627 -0.027433 0.021907
vn -4.849649 -3.812157 1.091214
v -0.058596 -0.046729 0.021342
vn -2.311908 -2.047472 3.700009
v -0.043408 -0.038456 0.099099
vn -2.521095 -1.863070 -3.013180
v -0.060780 -0.044842 0.000000
vn -5.237203 -3.345990 0.477332
v -0.063598 -0.040688 0.017927
vn -2.047825 -2.311459 3.700630
v -0.038456 -0.043408 0.099099
vn -1.753812 -2.541884 3.700037
v -0.032943 -0.047727 0.099099
vn -1.094548 -2.887664 3.700414
v -0.020564 -0.054224 0.099099
vn -1.435779 -2.734109 3.700232
v -0.026950 -0.051350 0.099099
vn -2.509748 -5.620800 1.152183
v -0.030502 -0.068328 0.022129
vn -6.160408 -0.937659 0.454035
v -0.074598 -0.011372 0.017783
vn 1.607294 -5.994777 0.542162
v 0.020132 -0.072767 0.017902
vn 1.095570 -2.887400 3.699733
v 0.020564 -0.054224 0.099099
vn 4.012305 4.745132 0.488711
v 0.048848 0.057572 0.017762
vn 3.296819 5.272271 0.483929
v 0.039889 0.064082 0.018055
vn 5.565858 2.657393 1.123212
v 0.067505 0.032207 0.022089
vn 5.227530 3.258972 1.114450
v 0.063684 0.039476 0.021705
vn 2.734805 1.434462 3.700211
v 0.051350 0.026950 0.099099
vn 2.887560 1.095308 3.699427
v 0.054224 0.020564 0.099099
vn 2.541102 1.754877 3.700265
v 0.047727 0.032943 0.099099
vn 4.673596 4.099949 0.485851
v 0.056825 0.049713 0.017883
vn 4.361071 4.364905 1.025259
v 0.053228 0.052873 0.021164
vn -5.944143 1.614342 1.131529
v -0.072208 0.019743 0.021973
vn -2.887619 1.095196 3.699358
v -0.054224 0.020564 0.099099
vn -5.751238 2.218550 1.145833
v -0.069683 0.027286 0.021915
vn 3.111962 0.377897 -3.012443
v 0.075020 0.008924 0.000000
vn 5.956361 -1.820901 0.470490
v 0.072144 -0.022121 0.017783
vn 1.474860 2.767050 -3.021110
v 0.035287 0.066782 -0.000000
vn -2.207505 2.226725 -3.018306
v -0.053395 0.053423 0.000000
vn -4.093226 4.678140 0.480113
v -0.049770 0.056773 0.017881
vn -5.173011 3.470096 0.466754
v -0.062419 0.042403 0.017783
vn -4.706121 4.049706 0.542606
v -0.057530 0.048867 0.018012
vn -4.924923 3.699701 1.095042
v -0.060055 0.044950 0.021250
vn -2.311607 2.047725 3.700383
v -0.043408 0.038456 0.099099
vn -2.541845 1.753963 3.699744
v -0.047727 0.032943 0.099099
vn -0.739056 2.998708 3.698730
v -0.013878 0.056307 0.099099
vn -0.973289 6.084178 1.166675
v -0.011359 0.073902 0.022193
vn -0.398460 6.149027 1.158331
v -0.005388 0.074601 0.022072
vn -0.719270 6.174808 0.504727
v -0.008771 0.074968 0.018022
vn -0.372564 3.065821 3.699091
v -0.006990 0.057569 0.099099
vn -1.376673 6.075019 0.456460
v -0.016880 0.073551 0.017748
vn -1.754854 2.541126 3.700220
v -0.032943 0.047727 0.099099
vn -3.214301 5.247177 1.141510
v -0.039515 0.063652 0.021728
vn -3.811936 4.850618 1.080537
v -0.046729 0.058596 0.021342
vn -2.654798 1.669891 -3.024565
v -0.063943 0.040205 0.000000
vn 1.754231 -2.541797 3.699104
v 0.032943 -0.047727 0.099099
vn 4.332823 -4.373157 1.107278
v 0.052716 -0.053356 0.021287
vn 2.047456 -2.311940 3.699981
v 0.038456 -0.043408 0.099099
vn -5.569163 2.646282 1.139894
v -0.067521 0.032335 0.021805
vn -2.734565 1.435271 3.699275
v -0.051350 0.026950 0.099099
vn -5.509307 2.882507 0.505636
v -0.066953 0.034847 0.018082
vn 5.745147 -2.231986 1.158352
v 0.069567 -0.027508 0.022087
vn 5.892208 -1.816038 1.149987
v 0.071484 -0.021996 0.022087
vn -3.082286 -5.409662 0.485050
v -0.037580 -0.065428 0.017859
vn -0.371472 -3.065701 3.700507
v -0.006990 -0.057569 0.099099
vn -0.000020 -3.088302 3.699502
v 0.000000 -0.057992 0.099099
vn 0.371613 -3.065698 3.700417
v 0.006990 -0.057569 0.099099
vn 0.739349 -2.998296 3.700642
v 0.013878 -0.056307 0.099099
vn -0.003622 -6.164080 1.160798
v 0.000036 -0.074793 0.022083
vn -0.472362 -6.215130 0.481007
v -0.005504 -0.075256 0.017745
vn -1.617436 -5.998324 0.520082
v -0.019198 -0.072997 0.018061
vn -2.887536 -1.095494 3.699162
v -0.054224 -0.020564 0.099099
vn -5.669240 -2.543577 0.489555
v -0.068949 -0.030753 0.017863
vn -2.541116 -1.754856 3.700257
v -0.047727 -0.032943 0.099099
vn -6.212869 -0.264004 0.500786
v -0.075406 -0.003365 0.018059
vn 1.992707 -5.821916 1.147652
v 0.024465 -0.070748 0.022037
vn 2.323445 -5.778007 0.474274
v 0.027686 -0.070197 0.017783
vn 0.691597 -3.060663 -3.038526
v 0.016800 -0.073606 0.000000
vn 3.822714 4.831475 1.146953
v 0.046628 0.058480 0.022078
vn 5.726662 2.292232 1.119271
v 0.069646 0.027424 0.021880
vn 5.499944 2.894650 0.512188
v 0.066594 0.035533 0.018027
vn 4.841134 3.818703 1.110939
v 0.058596 0.046729 0.021342
vn 2.311903 2.047489 3.699976
v 0.043408 0.038456 0.099099
vn -6.108450 1.137819 0.521865
v -0.074225 0.013699 0.018063
vn -0.000439 3.088201 3.700087
v -0.000000 0.057992 0.099099
vn 1.170262 6.036462 1.156154
v 0.014026 0.073512 0.022114
vn 1.965397 5.892656 0.501864
v 0.024353 0.071465 0.017904
vn 1.134669 6.107699 0.512908
v 0.013567 0.074254 0.017996
vn 2.689544 5.613656 0.488138
v 0.032704 0.068006 0.017765
vn 0.739619 2.998269 3.700427
v 0.013878 0.056307 0.099099
vn 0.371964 3.065578 3.700905
v 0.006990 0.057569 0.099099
vn -4.372993 4.347100 1.046260
v -0.052848 0.053230 0.021242
vn -2.072704 5.851913 0.554538
v -0.025367 0.071094 0.017970
vn -2.740130 5.586636 0.502869
v -0.032855 0.067932 0.017783
vn -3.377956 5.220648 0.473662
v -0.040759 0.063556 0.017853
vn 3.666817 -4.951597 1.089539
v 0.044333 -0.060504 0.021246
vn 4.877398 -3.874331 0.480072
v 0.059023 -0.047017 0.017765
vn -5.300904 3.144092 1.152430
v -0.064688 0.037566 0.022013
vn -2.415689 -5.725304 0.486208
v -0.029708 -0.069413 0.017827
vn -3.101047 -5.323806 1.148701
v -0.037565 -0.064717 0.021915
vn 2.925571 -5.486665 0.496498
v 0.035719 -0.066496 0.018044
vn 1.053655 -2.953184 -3.020047
v 0.024935 -0.071297 0.000000
vn 3.310077 5.196674 1.090694
v 0.040143 0.063405 0.021078
vn 1.754502 2.541443 3.699874
v 0.032943 0.047727 0.099099
vn 1.434836 2.734749 3.699524
v 0.026950 0.051350 0.099099
vn 3.088436 -0.001265 3.698778
v 0.057992 0.000000 0.099099
vn 6.146279 0.215809 1.150259
v 0.074828 0.002481 0.021990
vn 3.065577 0.371834 3.701005
v 0.057569 0.006990 0.099099
vn 6.122289 -0.675491 1.108929
v 0.074340 -0.008721 0.022039
vn 3.066188 -0.372151 3.697320
v 0.057569 -0.006990 0.099099
vn 2.998173 0.739757 3.700719
v 0.056307 0.013878 0.099099
vn 6.051406 1.105016 1.153481
v 0.073565 0.013905 0.022014
vn 5.128963 3.535711 0.464692
v 0.062326 0.042543 0.017765
vn -5.964062 1.802685 0.472119
v -0.072148 0.022090 0.017816
vn 2.887554 -1.095345 3.699376
v 0.054224 -0.020564 0.099099
vn 2.998894 -0.738392 3.698620
v 0.056307 -0.013878 0.099099
vn 6.013277 -1.364491 1.129592
v 0.072984 -0.016547 0.021906
vn 0.294666 6.146504 1.153219
v 0.003220 0.074807 0.021890
vn 0.810302 3.029963 -3.025732
v 0.019568 0.072953 0.000000
vn 2.676228 5.548217 1.156254
v 0.032303 0.067436 0.022182
vn 1.095390 2.887521 3.699455
v 0.020564 0.054224 0.099099
vn -2.047471 2.311911 3.700007
v -0.038456 0.043408 0.099099
vn 4.575162 -4.222223 0.509333
v 0.055323 -0.051308 0.017849
vn 2.047551 2.311821 3.700091
v 0.038456 0.043408 0.099099
vn 6.201937 -0.229160 0.551600
v 0.075447 -0.002329 0.018025
vn 5.912560 1.755792 1.122674
v 0.071475 0.022016 0.022098
vn 6.200674 0.517415 0.508133
v 0.075231 0.005796 0.017816
vn 6.092367 1.230760 0.486586
v 0.074065 0.014652 0.017907
vn 0.523413 6.204958 0.496598
v 0.005513 0.075258 0.017783
vn -0.073063 6.225657 0.502277
v -0.000176 0.075446 0.017961
vn 2.029338 5.808631 1.142976
v 0.025006 0.070570 0.022004
# 212 vertices, 0 vertices normals

f 1//1 2//2 3//3
f 2//2 4//4 5//5
f 4//4 2//2 6//6
f 6//6 2//2 7//7
f 7//7 2//2 1//1
f 8//8 1//1 3//3
f 9//9 10//10 2//2
f 2//2 11//11 12//12
f 12//12 11//11 13//13
f 14//14 2//2 15//15
f 7//7 16//16 6//6
f 17//17 1//1 8//8
f 7//7 18//18 19//19
f 18//18 7//7 1//1
f 20//20 2//2 10//10
f 20//20 11//11 2//2
f 10//10 21//21 20//20
f 22//22 13//13 11//11
f 23//23 22//22 11//11
f 24//24 2//2 5//5
f 24//24 9//9 2//2
f 15//15 2//2 25//25
f 2//2 12//12 25//25
f 26//26 13//13 27//27
f 26//26 12//12 13//13
f 4//4 28//28 5//5
f 29//29 4//4 6//6
f 30//30 16//16 7//7
f 31//31 32//32 33//33
f 31//31 33//33 34//34
f 35//35 17//17 8//8
f 36//36 37//37 38//38
f 39//39 40//40 38//38
f 41//41 42//42 43//43
f 44//44 45//45 46//46
f 47//47 48//48 1//1
f 49//49 1//1 48//48
f 49//49 18//18 1//1
f 49//49 48//48 39//39
f 50//50 51//51 52//52
f 53//53 10//10 9//9
f 54//54 41//41 43//43
f 55//55 20//20 56//56
f 11//11 55//55 57//57
f 20//20 55//55 11//11
f 58//58 5//5 28//28
f 59//59 28//28 4//4
f 60//60 61//61 62//62
f 61//61 63//63 62//62
f 64//64 4//4 29//29
f 65//65 14//14 15//15
f 65//65 66//66 14//14
f 67//67 68//68 69//69
f 70//70 65//65 15//15
f 70//70 66//66 65//65
f 30//30 71//71 16//16
f 33//33 72//72 34//34
f 73//73 31//31 27//27
f 31//31 73//73 32//32
f 74//74 26//26 27//27
f 74//74 27//27 31//31
f 74//74 12//12 26//26
f 74//74 31//31 34//34
f 75//75 3//3 76//76
f 75//75 77//77 3//3
f 78//78 8//8 3//3
f 3//3 77//77 78//78
f 79//79 50//50 52//52
f 79//79 3//3 2//2
f 79//79 2//2 50//50
f 1//1 17//17 80//80
f 35//35 80//80 17//17
f 81//81 82//82 80//80
f 80//80 82//82 1//1
f 80//80 83//83 81//81
f 80//80 35//35 83//83
f 84//84 85//85 86//86
f 87//87 86//86 76//76
f 88//88 38//38 40//40
f 88//88 36//36 38//38
f 43//43 42//42 89//89
f 89//89 42//42 90//90
f 37//37 89//89 90//90
f 36//36 89//89 37//37
f 90//90 42//42 91//91
f 91//91 7//7 19//19
f 91//91 42//42 41//41
f 39//39 92//92 40//40
f 93//93 82//82 81//81
f 93//93 81//81 94//94
f 95//95 1//1 82//82
f 95//95 47//47 1//1
f 95//95 96//96 47//47
f 96//96 95//95 82//82
f 96//96 93//93 45//45
f 82//82 93//93 96//96
f 97//97 94//94 81//81
f 97//97 81//81 83//83
f 97//97 83//83 98//98
f 99//99 100//100 101//101
f 99//99 85//85 84//84
f 99//99 101//101 85//85
f 102//102 18//18 49//49
f 38//38 37//37 102//102
f 102//102 39//39 38//38
f 102//102 49//49 39//39
f 103//103 51//51 50//50
f 69//69 68//68 104//104
f 105//105 53//53 9//9
f 105//105 9//9 106//106
f 107//107 108//108 109//109
f 110//110 107//107 109//109
f 109//109 108//108 111//111
f 10//10 53//53 112//112
f 112//112 105//105 113//113
f 105//105 112//112 53//53
f 41//41 54//54 114//114
f 114//114 54//54 115//115
f 114//114 115//115 116//116
f 55//55 117//117 57//57
f 22//22 23//23 118//118
f 118//118 27//27 13//13
f 13//13 22//22 118//118
f 9//9 24//24 119//119
f 119//119 106//106 9//9
f 120//120 29//29 6//6
f 120//120 121//121 29//29
f 6//6 122//122 123//123
f 123//123 122//122 124//124
f 123//123 120//120 6//6
f 120//120 123//123 121//121
f 125//125 124//124 126//126
f 127//127 60//60 62//62
f 128//128 129//129 130//130
f 131//131 129//129 128//128
f 128//128 127//127 131//131
f 128//128 60//60 127//127
f 132//132 130//130 28//28
f 132//132 28//28 59//59
f 132//132 128//128 130//130
f 132//132 60//60 128//128
f 133//133 63//63 134//134
f 134//134 135//135 133//133
f 134//134 63//63 61//61
f 136//136 6//6 16//16
f 136//136 122//122 6//6
f 68//68 67//67 137//137
f 34//34 72//72 138//138
f 138//138 72//72 139//139
f 140//140 71//71 116//116
f 140//140 115//115 141//141
f 115//115 140//140 116//116
f 71//71 142//142 16//16
f 142//142 136//136 16//16
f 136//136 142//142 122//122
f 140//140 142//142 71//71
f 143//143 73//73 27//27
f 118//118 143//143 27//27
f 143//143 118//118 144//144
f 145//145 35//35 8//8
f 145//145 8//8 78//78
f 146//146 87//87 147//147
f 84//84 86//86 146//146
f 146//146 86//86 87//87
f 148//148 147//147 52//52
f 52//52 51//51 148//148
f 148//148 51//51 149//149
f 52//52 147//147 150//150
f 150//150 147//147 87//87
f 150//150 79//79 52//52
f 79//79 150//150 87//87
f 151//151 87//87 76//76
f 151//151 79//79 87//87
f 151//151 76//76 3//3
f 3//3 79//79 151//151
f 152//152 76//76 86//86
f 152//152 86//86 85//85
f 152//152 75//75 76//76
f 77//77 75//75 152//152
f 153//153 44//44 46//46
f 153//153 92//92 44//44
f 153//153 88//88 40//40
f 40//40 92//92 153//153
f 44//44 92//92 154//154
f 96//96 154//154 47//47
f 48//48 47//47 154//154
f 45//45 44//44 154//154
f 154//154 96//96 45//45
f 154//154 39//39 48//48
f 154//154 92//92 39//39
f 46//46 45//45 155//155
f 155//155 93//93 94//94
f 155//155 45//45 93//93
f 102//102 156//156 18//18
f 156//156 19//19 18//18
f 156//156 91//91 19//19
f 156//156 102//102 37//37
f 156//156 37//37 90//90
f 91//91 156//156 90//90
f 149//149 51//51 157//157
f 51//51 103//103 157//157
f 157//157 104//104 149//149
f 158//158 157//157 103//103
f 69//69 104//104 157//157
f 157//157 158//158 69//69
f 159//159 50//50 2//2
f 159//159 103//103 50//50
f 113//113 105//105 160//160
f 161//161 56//56 107//107
f 161//161 107//107 110//110
f 108//108 107//107 162//162
f 162//162 20//20 21//21
f 20//20 162//162 56//56
f 162//162 107//107 56//56
f 163//163 111//111 108//108
f 163//163 164//164 111//111
f 163//163 113//113 164//164
f 163//163 112//112 113//113
f 41//41 114//114 165//165
f 165//165 7//7 91//91
f 165//165 91//91 41//41
f 166//166 129//129 131//131
f 167//167 168//168 169//169
f 106//106 119//119 170//170
f 170//170 119//119 24//24
f 170//170 24//24 168//168
f 171//171 167//167 172//172
f 123//123 173//173 121//121
f 173//173 135//135 121//121
f 173//173 123//123 124//124
f 124//124 125//125 173//173
f 61//61 60//60 174//174
f 174//174 60//60 132//132
f 174//174 59//59 4//4
f 174//174 132//132 59//59
f 175//175 134//134 61//61
f 61//61 174//174 175//175
f 4//4 64//64 175//175
f 175//175 174//174 4//4
f 176//176 121//121 135//135
f 176//176 135//135 134//134
f 29//29 121//121 176//176
f 176//176 134//134 175//175
f 176//176 64//64 29//29
f 176//176 175//175 64//64
f 177//177 67//67 66//66
f 177//177 137//137 67//67
f 66//66 70//70 177//177
f 177//177 139//139 137//137
f 177//177 138//138 139//139
f 177//177 70//70 138//138
f 178//178 74//74 34//34
f 178//178 25//25 12//12
f 74//74 178//178 12//12
f 179//179 124//124 122//122
f 142//142 179//179 122//122
f 179//179 141//141 126//126
f 126//126 124//124 179//179
f 179//179 140//140 141//141
f 179//179 142//142 140//140
f 101//101 145//145 180//180
f 180//180 145//145 78//78
f 180//180 85//85 101//101
f 180//180 152//152 85//85
f 180//180 78//78 77//77
f 77//77 152//152 180//180
f 101//101 100//100 181//181
f 181//181 145//145 101//101
f 181//181 100//100 98//98
f 98//98 83//83 181//181
f 181//181 83//83 35//35
f 145//145 181//181 35//35
f 182//182 158//158 14//14
f 182//182 14//14 66//66
f 66//66 67//67 182//182
f 182//182 67//67 69//69
f 69//69 158//158 182//182
f 183//183 158//158 103//103
f 183//183 103//103 159//159
f 158//158 183//183 14//14
f 183//183 2//2 14//14
f 183//183 159//159 2//2
f 184//184 105//105 106//106
f 184//184 160//160 105//105
f 185//185 184//184 186//186
f 160//160 184//184 185//185
f 187//187 188//188 189//189
f 190//190 187//187 191//191
f 188//188 187//187 190//190
f 192//192 189//189 193//193
f 193//193 189//189 188//188
f 162//162 194//194 108//108
f 194//194 163//163 108//108
f 194//194 112//112 163//163
f 194//194 162//162 21//21
f 194//194 21//21 10//10
f 112//112 194//194 10//10
f 195//195 165//165 114//114
f 116//116 71//71 195//195
f 195//195 114//114 116//116
f 195//195 71//71 30//30
f 195//195 30//30 7//7
f 165//165 195//195 7//7
f 73//73 196//196 32//32
f 143//143 196//196 73//73
f 196//196 143//143 144//144
f 196//196 144//144 197//197
f 198//198 197//197 144//144
f 198//198 118//118 23//23
f 144//144 118//118 198//198
f 198//198 23//23 190//190
f 191//191 197//197 198//198
f 198//198 190//190 191//191
f 199//199 166//166 172//172
f 167//167 199//199 172//172
f 129//129 166//166 199//199
f 200//200 5//5 169//169
f 200//200 169//169 168//168
f 200//200 24//24 5//5
f 200//200 168//168 24//24
f 186//186 184//184 201//201
f 106//106 170//170 201//201
f 201//201 184//184 106//106
f 201//201 202//202 186//186
f 203//203 173//173 125//125
f 203//203 133//133 135//135
f 173//173 203//203 135//135
f 34//34 138//138 204//204
f 204//204 178//178 34//34
f 204//204 138//138 70//70
f 178//178 204//204 25//25
f 15//15 25//25 204//204
f 204//204 70//70 15//15
f 160//160 185//185 205//205
f 205//205 164//164 113//113
f 113//113 160//160 205//205
f 206//206 190//190 23//23
f 188//188 190//190 206//206
f 206//206 11//11 57//57
f 206//206 23//23 11//11
f 192//192 193//193 207//207
f 207//207 110//110 192//192
f 207//207 161//161 110//110
f 207//207 56//56 161//161
f 208//208 193//193 188//188
f 206//206 208//208 188//188
f 117//117 208//208 57//57
f 208//208 206//206 57//57
f 209//209 55//55 56//56
f 207//207 209//209 56//56
f 209//209 207//207 193//193
f 209//209 117//117 55//55
f 209//209 208//208 117//117
f 193//193 208//208 209//209
f 167//167 169//169 210//210
f 210//210 199//199 167//167
f 210//210 5//5 58//58
f 210//210 169//169 5//5
f 130//130 129//129 211//211
f 129//129 199//199 211//211
f 199//199 210//210 211//211
f 211//211 210//210 58//58
f 211//211 28//28 130//130
f 211//211 58//58 28//28
f 171//171 202//202 212//212
f 212//212 168//168 167//167
f 167//167 171//171 212//212
f 212//212 202//202 201//201
f 212//212 170//170 168//168
f 212//212 201//201 170//170
f 205//205 146//146 147//147
f 205//205 72//72 33//33
f 205//205 189//189 192//192
f 205//205 33//33 32//32
f 205//205 166//166 131//131
f 99//99 205//205 100//100
f 205//205 203//203 125//125
f 205//205 89//89 36//36
f 205//205 98//98 100//100
f 205//205 104//104 68//68
f 205//205 141//141 115//115
f 115//115 54//54 205//205
f 205//205 197//197 191//191
f 205//205 63//63 133//133
f 36//36 88//88 205//205
f 88//88 153//153 205//205
f 94//94 97//97 205//205
f 131//131 127//127 205//205
f 205//205 192//192 110//110
f 205//205 171//171 172//172
f 126//126 141//141 205//205
f 205//205 54//54 43//43
f 205//205 202//202 171//171
f 62//62 63//63 205//205
f 139//139 72//72 205//205
f 68//68 137//137 205//205
f 147//147 148//148 205//205
f 43//43 89//89 205//205
f 205//205 97//97 98//98
f 205//205 99//99 84//84
f 205//205 149//149 104//104
f 205//205 110//110 109//109
f 205//205 111//111 164//164
f 109//109 111//111 205//205
f 205//205 155//155 94//94
f 205//205 125//125 126//126
f 205//205 127//127 62//62
f 205//205 137//137 139//139
f 146//146 205//205 84//84
f 205//205 148//148 149//149
f 205//205 153//153 46//46
f 46//46 155//155 205//205
f 191//191 187//187 205//205
f 172//172 166//166 205//205
f 205//205 196//196 197//197
f 205//205 185//185 186//186
f 205//205 187//187 189//189
f 32//32 196//196 205//205
f 205//205 186//186 202//202
f 203//203 205//205 133//133
# 420 faces, 0 coords texture

# End of File
